<svg xmlns="http://www.w3.org/2000/svg" xmlns:xlink="http://www.w3.org/1999/xlink" id="Layer_1" x="0" y="0" version="1.1" viewBox="0 0 200 200" xml:space="preserve" style="enable-background:new 0 0 200 200"><style type="text/css">.st0{fill:#fff}</style><path d="M119.3,86.7h0.7c-2.4-12.7-14.8-22.4-29.7-22.4c-16.7,0-30.2,12-30.2,26.8c0,6.4,2.5,12.3,6.7,16.9v12.2	l9.3-5.4c4.2,2,9,3.1,14.1,3.1c0.6,0,1.2,0,1.8,0c-0.4-1.8-0.6-3.6-0.6-5.5C91.3,98.2,103.9,86.7,119.3,86.7z M100.3,80	c2.5,0,4.5,2,4.5,4.5c0,2.5-2,4.5-4.5,4.5s-4.5-2-4.5-4.5C95.8,82,97.8,80,100.3,80z M80.2,88.9c-2.5,0-4.5-2-4.5-4.5	c0-2.5,2-4.5,4.5-4.5s4.5,2,4.5,4.5C84.6,86.9,82.7,88.9,80.2,88.9z M119.3,91.2c-13,0-23.5,9.5-23.5,21.2s10.5,21.2,23.5,21.2	c2.5,0,4.9-0.4,7.2-1l9.6,5.5v-10.8c4.2-3.8,6.7-9.1,6.7-14.9C142.8,100.7,132.2,91.2,119.3,91.2L119.3,91.2z M112.6,109	c-1.9,0-3.4-1.5-3.4-3.4s1.5-3.4,3.4-3.4s3.4,1.5,3.4,3.4S114.4,109,112.6,109z M128.2,109c-1.9,0-3.4-1.5-3.4-3.4s1.5-3.4,3.4-3.4	s3.4,1.5,3.4,3.4S130.1,109,128.2,109z M100.3,21.9c-43.2,0-78.2,35-78.2,78.2s35,78.2,78.2,78.2s78.2-35,78.2-78.2	S143.5,21.9,100.3,21.9z M100.3,171.6c-39.5,0-71.5-32-71.5-71.5c0-39.5,32-71.5,71.5-71.5c39.5,0,71.5,32,71.5,71.5	C171.8,139.6,139.8,171.6,100.3,171.6z" class="st0"/></svg>