<?xml version="1.0" standalone="no"?><!DOCTYPE svg PUBLIC "-//W3C//DTD SVG 1.1//EN" "http://www.w3.org/Graphics/SVG/1.1/DTD/svg11.dtd"><svg t="1524907427263" class="icon" style="" viewBox="0 0 1024 1024" version="1.1" xmlns="http://www.w3.org/2000/svg" p-id="1855" xmlns:xlink="http://www.w3.org/1999/xlink" width="200" height="200"><defs><style type="text/css"></style></defs><path d="M918.795922 356.854687c-21.798121-51.476314-52.909055-97.631021-92.514092-137.236058-39.605037-39.605037-85.862083-70.818309-137.236058-92.514092C635.727364 104.590046 579.236458 93.128123 520.903458 93.128123s-114.823906 11.461923-168.142315 33.976414c-51.476314 21.798121-97.631021 52.909055-137.236058 92.514092s-70.818309 85.862083-92.514092 137.236058C100.496502 410.173096 89.034579 466.664002 89.034579 524.997002s11.461923 114.823906 33.976414 168.142315c21.798121 51.476314 52.909055 97.631021 92.514092 137.236058 39.605037 39.605037 85.862083 70.818309 137.236058 92.514092 53.21607 22.514491 109.809314 33.976414 168.142315 33.976414s114.823906-11.461923 168.142315-33.976414c51.476314-21.798121 97.631021-52.909055 137.236058-92.514092 39.605037-39.605037 70.818309-85.862083 92.514092-137.236058 22.514491-53.21607 33.976414-109.809314 33.976414-168.142315S941.310414 410.173096 918.795922 356.854687zM520.903458 911.836898c-213.273636 0-386.839896-173.56626-386.839896-386.839896s173.56626-386.839896 386.839896-386.839896 386.839896 173.56626 386.839896 386.839896S734.177094 911.836898 520.903458 911.836898z" p-id="1856" fill="#ffffff"></path><path d="M740.419748 351.328403c-29.371177-24.76594-67.85049-37.967619-105.613432-36.125525-10.029182 0.511693-17.806916 9.005797-17.295223 19.137318 0.511693 10.029182 9.005797 17.806916 19.137318 17.295223 54.955827-2.660804 116.358985 38.069958 119.838497 108.581251 0.511693 9.722167 8.494104 17.295223 18.21627 17.295223 0.307016 0 0.614032 0 0.921047 0 10.029182-0.511693 17.806916-9.005797 17.295223-19.137318C790.770338 416.211073 772.144713 378.141115 740.419748 351.328403z" p-id="1857" fill="#ffffff"></path><path d="M656.195083 386.839896c-1.023386-0.307016-1.535079-0.511693-2.456126-0.921047-6.54967-2.763142-10.95023-3.581851-27.529083-3.581851-10.029182 0-18.21627 8.187088-18.21627 18.21627s8.187088 18.21627 18.21627 18.21627c9.005797 0 11.768939 0.307016 12.689986 0.409354 0.204677 0.102339 0.409354 0.204677 0.614032 0.204677 1.228063 0.511693 3.172497 1.330402 5.935639 2.149111 19.751349 6.140316 35.409155 21.491105 42.061163 41.037777 2.558465 7.573056 9.619828 12.38297 17.295223 12.38297 1.944433 0 3.888867-0.307016 5.8333-0.921047 9.51749-3.274835 14.634419-13.611033 11.461923-23.128523C711.662602 420.406956 687.101339 396.357386 656.195083 386.839896z" p-id="1858" fill="#ffffff"></path><path d="M646.575255 538.915051c0 0-13.304018-3.274835-3.888867-16.578853 0 0 33.157705-72.96742-60.277434-67.441135 0 0-38.172297 7.777733-61.30082 17.704577 0 0-13.09934 4.195882-12.178293-5.526284 0 0 26.505697-80.642814-55.262842-73.479113 0 0-105.511093 11.564261-193.419948 163.025385 0 0-65.803718 121.578253 83.405956 184.51649 0 0 102.747951 45.847691 229.340796 8.801119 0 0 122.089946-36.43254 139.794523-116.563662C712.890666 633.475914 738.782331 561.020188 646.575255 538.915051zM463.389167 733.767739c-90.057965 6.447332-173.361583-20.672397-179.911253-77.572656-7.470718-64.677993 74.40016-133.756546 164.458125-140.203878 90.057965-6.447332 178.376174 41.958825 178.376174 109.092944C626.209874 680.961023 553.447132 727.320408 463.389167 733.767739z" p-id="1859" fill="#ffffff"></path><path d="M422.556066 563.169298c-50.862283 8.698781-86.271437 49.736558-78.80072 93.128123 5.935639 34.590446 56.593244 59.356386 107.455527 50.657605 50.862283-8.698781 81.461523-48.303818 76.651609-82.280232C521.312812 578.110734 473.418349 554.368179 422.556066 563.169298zM409.354387 673.694983c-18.93264 3.274835-37.660604-5.935639-39.912053-18.830302-2.763142-16.169498 10.336198-31.417949 29.268839-34.590446 18.93264-3.274835 36.739556 5.526284 39.093344 22.821507C439.544273 655.785729 428.184689 670.522487 409.354387 673.694983zM451.210873 628.870678c-7.26604 1.228063-14.634419-3.070158-15.657805-8.801119-1.228063-7.26604 3.684189-13.918049 10.95023-15.146112 7.26604-1.228063 14.225065 2.865481 15.35079 10.643214C462.775135 621.195283 458.476914 627.642614 451.210873 628.870678z" p-id="1860" fill="#ffffff"></path></svg>