<svg xmlns="http://www.w3.org/2000/svg" width="70" height="70" viewBox="0 0 70 70" style="width:100%;height:100%"><desc>Made with illustrio</desc><g class="shadow2"><g fill="none" fill-rule="evenodd" stroke="none" class="secondary-fill" style="fill-opacity:.7"><path fill="none" stroke="none" d="M16,2 C16,0.895 16.895,0 18,0 L30,0 C31.105,0 32,0.895 32,2 C32,3.105 31.105,4 30,4 L18,4 C16.895,4 16,3.105 16,2 Z M30,8 L18,8 C16.895,8 16,8.895 16,10 C16,11.105 16.895,12 18,12 L30,12 C31.105,12 32,11.105 32,10 C32,8.895 31.105,8 30,8 Z M12,2 C12,0.896 11.105,0 10,0 L2,0 C0.895,0 0,0.896 0,2 L0,10 C0,11.104 0.895,12 2,12 L10,12 C11.105,12 12,11.104 12,10 L12,2 Z M30,16 L18,16 C16.895,16 16,16.895 16,18 C16,19.105 16.895,20 18,20 L30,20 C31.105,20 32,19.105 32,18 C32,16.895 31.105,16 30,16 Z M30,24 L18,24 C16.895,24 16,24.895 16,26 C16,27.105 16.895,28 18,28 L30,28 C31.105,28 32,27.105 32,26 C32,24.895 31.105,24 30,24 Z M12,18 C12,16.896 11.105,16 10,16 L2,16 C0.895,16 0,16.896 0,18 L0,26 C0,27.105 0.895,28 2,28 L10,28 C11.105,28 12,27.105 12,26 L12,18 Z" class="secondary-fill" transform="matrix(1,0,0,1,0,2) translate(19 21)" style="fill-opacity:.7"/></g></g><g class="shadow"><g fill="none" fill-rule="evenodd" stroke="none" class="secondary-fill" style="fill-opacity:.7"><path fill="none" stroke="none" d="M16,2 C16,0.895 16.895,0 18,0 L30,0 C31.105,0 32,0.895 32,2 C32,3.105 31.105,4 30,4 L18,4 C16.895,4 16,3.105 16,2 Z M30,8 L18,8 C16.895,8 16,8.895 16,10 C16,11.105 16.895,12 18,12 L30,12 C31.105,12 32,11.105 32,10 C32,8.895 31.105,8 30,8 Z M12,2 C12,0.896 11.105,0 10,0 L2,0 C0.895,0 0,0.896 0,2 L0,10 C0,11.104 0.895,12 2,12 L10,12 C11.105,12 12,11.104 12,10 L12,2 Z M30,16 L18,16 C16.895,16 16,16.895 16,18 C16,19.105 16.895,20 18,20 L30,20 C31.105,20 32,19.105 32,18 C32,16.895 31.105,16 30,16 Z M30,24 L18,24 C16.895,24 16,24.895 16,26 C16,27.105 16.895,28 18,28 L30,28 C31.105,28 32,27.105 32,26 C32,24.895 31.105,24 30,24 Z M12,18 C12,16.896 11.105,16 10,16 L2,16 C0.895,16 0,16.896 0,18 L0,26 C0,27.105 0.895,28 2,28 L10,28 C11.105,28 12,27.105 12,26 L12,18 Z" class="secondary-fill" transform="matrix(1,0,0,1,0,1) translate(19 21)" style="fill-opacity:.7"/></g></g><g class="white-layer"><g fill="#fff" fill-rule="evenodd" stroke="none"><path fill="#fff" stroke="none" d="M16,2 C16,0.895 16.895,0 18,0 L30,0 C31.105,0 32,0.895 32,2 C32,3.105 31.105,4 30,4 L18,4 C16.895,4 16,3.105 16,2 Z M30,8 L18,8 C16.895,8 16,8.895 16,10 C16,11.105 16.895,12 18,12 L30,12 C31.105,12 32,11.105 32,10 C32,8.895 31.105,8 30,8 Z M12,2 C12,0.896 11.105,0 10,0 L2,0 C0.895,0 0,0.896 0,2 L0,10 C0,11.104 0.895,12 2,12 L10,12 C11.105,12 12,11.104 12,10 L12,2 Z M30,16 L18,16 C16.895,16 16,16.895 16,18 C16,19.105 16.895,20 18,20 L30,20 C31.105,20 32,19.105 32,18 C32,16.895 31.105,16 30,16 Z M30,24 L18,24 C16.895,24 16,24.895 16,26 C16,27.105 16.895,28 18,28 L30,28 C31.105,28 32,27.105 32,26 C32,24.895 31.105,24 30,24 Z M12,18 C12,16.896 11.105,16 10,16 L2,16 C0.895,16 0,16.896 0,18 L0,26 C0,27.105 0.895,28 2,28 L10,28 C11.105,28 12,27.105 12,26 L12,18 Z" transform="translate(19 21)"/></g></g><g class="base"><g fill="none" fill-rule="evenodd" stroke="none" class="main-stroke main-fill" style="fill-opacity:.1"><path fill="none" stroke="none" d="M16,2 C16,0.895 16.895,0 18,0 L30,0 C31.105,0 32,0.895 32,2 C32,3.105 31.105,4 30,4 L18,4 C16.895,4 16,3.105 16,2 Z M30,8 L18,8 C16.895,8 16,8.895 16,10 C16,11.105 16.895,12 18,12 L30,12 C31.105,12 32,11.105 32,10 C32,8.895 31.105,8 30,8 Z M12,2 C12,0.896 11.105,0 10,0 L2,0 C0.895,0 0,0.896 0,2 L0,10 C0,11.104 0.895,12 2,12 L10,12 C11.105,12 12,11.104 12,10 L12,2 Z M30,16 L18,16 C16.895,16 16,16.895 16,18 C16,19.105 16.895,20 18,20 L30,20 C31.105,20 32,19.105 32,18 C32,16.895 31.105,16 30,16 Z M30,24 L18,24 C16.895,24 16,24.895 16,26 C16,27.105 16.895,28 18,28 L30,28 C31.105,28 32,27.105 32,26 C32,24.895 31.105,24 30,24 Z M12,18 C12,16.896 11.105,16 10,16 L2,16 C0.895,16 0,16.896 0,18 L0,26 C0,27.105 0.895,28 2,28 L10,28 C11.105,28 12,27.105 12,26 L12,18 Z" class="main-stroke main-fill" transform="translate(19 21)" style="fill-opacity:.1"/></g></g><style>.main-fill{fill:#00828c}.main-stroke{stroke:#00828c}.secondary-fill{fill:#ffd7c2}</style></svg>