<svg xmlns="http://www.w3.org/2000/svg" width="70" height="70" viewBox="0 0 70 70" style="width: 100%; height: 100%;"><desc>Made with illustrio</desc>
  
<g class="shadow2" transform="matrix(1,0,0,1,0,2)"><g fill="none" fill-rule="evenodd" stroke="none" style="fill-opacity: 0.7;" class="secondary-fill">
    
    <path fill="none" d="M27.312,4.688 C21.066,-1.562 10.934,-1.562 4.687,4.688 C-1.563,10.934 -1.563,21.067 4.687,27.317 C10.933,33.562 21.065,33.562 27.312,27.317 C33.562,21.066 33.562,10.938 27.312,4.688 Z M20.242,20.242 L7.516,24.484 L11.758,11.757 L24.484,7.515 L20.242,20.242 Z M10.344,21.656 L13.172,13.172 L18.828,18.828 L10.344,21.656 Z" transform="translate(19 19)" stroke="none" style="fill-opacity: 0.7;" class="secondary-fill"></path>
  </g></g><g class="shadow" transform="matrix(1,0,0,1,0,1)"><g fill="none" fill-rule="evenodd" stroke="none" style="fill-opacity: 0.7;" class="secondary-fill">
    
    <path fill="none" d="M27.312,4.688 C21.066,-1.562 10.934,-1.562 4.687,4.688 C-1.563,10.934 -1.563,21.067 4.687,27.317 C10.933,33.562 21.065,33.562 27.312,27.317 C33.562,21.066 33.562,10.938 27.312,4.688 Z M20.242,20.242 L7.516,24.484 L11.758,11.757 L24.484,7.515 L20.242,20.242 Z M10.344,21.656 L13.172,13.172 L18.828,18.828 L10.344,21.656 Z" transform="translate(19 19)" stroke="none" style="fill-opacity: 0.7;" class="secondary-fill"></path>
  </g></g><g class="white-layer"><g fill="#ffffff" fill-rule="evenodd" stroke="none">
    
    <path fill="#ffffff" d="M27.312,4.688 C21.066,-1.562 10.934,-1.562 4.687,4.688 C-1.563,10.934 -1.563,21.067 4.687,27.317 C10.933,33.562 21.065,33.562 27.312,27.317 C33.562,21.066 33.562,10.938 27.312,4.688 Z M20.242,20.242 L7.516,24.484 L11.758,11.757 L24.484,7.515 L20.242,20.242 Z M10.344,21.656 L13.172,13.172 L18.828,18.828 L10.344,21.656 Z" transform="translate(19 19)" stroke="none"></path>
  </g></g><g class="base"><g fill="none" fill-rule="evenodd" stroke="none" style="fill-opacity: 0.1;" class="main-stroke main-fill">
    
    <path fill="none" d="M27.312,4.688 C21.066,-1.562 10.934,-1.562 4.687,4.688 C-1.563,10.934 -1.563,21.067 4.687,27.317 C10.933,33.562 21.065,33.562 27.312,27.317 C33.562,21.066 33.562,10.938 27.312,4.688 Z M20.242,20.242 L7.516,24.484 L11.758,11.757 L24.484,7.515 L20.242,20.242 Z M10.344,21.656 L13.172,13.172 L18.828,18.828 L10.344,21.656 Z" transform="translate(19 19)" stroke="none" style="fill-opacity: 0.1;" class="main-stroke main-fill"></path>
  </g></g><style>
          .main-fill {fill: #00828c;}
          .main-stroke {stroke: #00828c;}
          .secondary-fill {fill: #ffd7c2;}
          .secondary-stroke {stroke: #ffd7c2;}

          .main-fill--darken {fill: #003b3f;}
          .main-stroke--darken {stroke: #003b3f;}
          .secondary-fill--darken {fill: #ffa575;}
          .secondary-stroke--darken {stroke: #ffa575;}

          .main-fill--darkener {fill: #000c0c;}
          .main-stroke--darkener {stroke: #000c0c;}
          .secondary-fill--darkener {fill: #ff8342;}
          .secondary-stroke--darkener {stroke: #ff8342;}
        </style></svg>