<svg xmlns="http://www.w3.org/2000/svg" width="70" height="70" viewBox="0 0 70 70" style="width:100%;height:100%"><desc>Made with illustrio</desc><g class="shadow2"><g fill="none" fill-rule="evenodd" stroke="none" class="secondary-fill" style="fill-opacity:.7"><path fill="none" stroke="none" d="M27.312,4.688 C21.066,-1.562 10.934,-1.562 4.687,4.688 C-1.563,10.934 -1.563,21.067 4.687,27.317 C10.933,33.562 21.065,33.562 27.312,27.317 C33.562,21.066 33.562,10.938 27.312,4.688 Z M20.242,20.242 L7.516,24.484 L11.758,11.757 L24.484,7.515 L20.242,20.242 Z M10.344,21.656 L13.172,13.172 L18.828,18.828 L10.344,21.656 Z" class="secondary-fill" transform="matrix(1,0,0,1,0,2) translate(19 19)" style="fill-opacity:.7"/></g></g><g class="shadow"><g fill="none" fill-rule="evenodd" stroke="none" class="secondary-fill" style="fill-opacity:.7"><path fill="none" stroke="none" d="M27.312,4.688 C21.066,-1.562 10.934,-1.562 4.687,4.688 C-1.563,10.934 -1.563,21.067 4.687,27.317 C10.933,33.562 21.065,33.562 27.312,27.317 C33.562,21.066 33.562,10.938 27.312,4.688 Z M20.242,20.242 L7.516,24.484 L11.758,11.757 L24.484,7.515 L20.242,20.242 Z M10.344,21.656 L13.172,13.172 L18.828,18.828 L10.344,21.656 Z" class="secondary-fill" transform="matrix(1,0,0,1,0,1) translate(19 19)" style="fill-opacity:.7"/></g></g><g class="white-layer"><g fill="#fff" fill-rule="evenodd" stroke="none"><path fill="#fff" stroke="none" d="M27.312,4.688 C21.066,-1.562 10.934,-1.562 4.687,4.688 C-1.563,10.934 -1.563,21.067 4.687,27.317 C10.933,33.562 21.065,33.562 27.312,27.317 C33.562,21.066 33.562,10.938 27.312,4.688 Z M20.242,20.242 L7.516,24.484 L11.758,11.757 L24.484,7.515 L20.242,20.242 Z M10.344,21.656 L13.172,13.172 L18.828,18.828 L10.344,21.656 Z" transform="translate(19 19)"/></g></g><g class="base"><g fill="none" fill-rule="evenodd" stroke="none" class="main-stroke main-fill" style="fill-opacity:.1"><path fill="none" stroke="none" d="M27.312,4.688 C21.066,-1.562 10.934,-1.562 4.687,4.688 C-1.563,10.934 -1.563,21.067 4.687,27.317 C10.933,33.562 21.065,33.562 27.312,27.317 C33.562,21.066 33.562,10.938 27.312,4.688 Z M20.242,20.242 L7.516,24.484 L11.758,11.757 L24.484,7.515 L20.242,20.242 Z M10.344,21.656 L13.172,13.172 L18.828,18.828 L10.344,21.656 Z" class="main-stroke main-fill" transform="translate(19 19)" style="fill-opacity:.1"/></g></g><style>.main-fill{fill:#00828c}.main-stroke{stroke:#00828c}.secondary-fill{fill:#ffd7c2}</style></svg>