<svg xmlns="http://www.w3.org/2000/svg" width="70" height="70" viewBox="0 0 70 70" style="width: 100%; height: 100%;"><desc>Made with illustrio</desc>
  
<g class="shadow2" transform="matrix(1,0,0,1,0,2)"><g fill="none" fill-rule="evenodd" stroke="none" style="fill-opacity: 0.7;" class="secondary-fill">
    
    
  </g><g fill="none" transform="translate(19.09 19.09)" stroke="none" style="fill-opacity: 0.7;" class="secondary-fill">
      <path d="M31.1818182 22.9090909L26.0909091 22.9090909C25.9655455 22.9090909 25.8420909 22.9466364 25.7377273 23.016L22.0799091 25.4545455 9.73827273 25.4545455 6.08045455 23.016C5.97609091 22.9466364 5.85263636 22.9090909 5.72727273 22.9090909L.636363636 22.9090909C.285090909 22.9090909 0 23.1935455 0 23.5454545L0 31.1818182C0 31.5337273.285090909 31.8181818.636363636 31.8181818L31.1818182 31.8181818C31.5337273 31.8181818 31.8181818 31.5337273 31.8181818 31.1818182L31.8181818 23.5454545C31.8181818 23.1935455 31.5337273 22.9090909 31.1818182 22.9090909L31.1818182 22.9090909zM15.4591818 21.4499091C15.5832727 21.574 15.7461818 21.6363636 15.9090909 21.6363636 16.072 21.6363636 16.2349091 21.574 16.359 21.4499091L23.9953636 13.8135455C24.1773636 13.6315455 24.2320909 13.3579091 24.1334545 13.1199091 24.0354545 12.8825455 23.8025455 12.7272727 23.5454545 12.7272727L20.3636364 12.7272727 20.3636364.636363636C20.3636364.285090909 20.0791818 0 19.7272727 0L12.0909091 0C11.7396364 0 11.4545455.285090909 11.4545455.636363636L11.4545455 12.7272727 8.27272727 12.7272727C8.01563636 12.7272727 7.78336364 12.8825455 7.68472727 13.1199091 7.58609091 13.3579091 7.64081818 13.6315455 7.82281818 13.8135455L15.4591818 21.4499091 15.4591818 21.4499091z" fill="none" stroke="none" style="fill-opacity: 0.7;" class="secondary-fill"></path>
    </g></g><g class="shadow" transform="matrix(1,0,0,1,0,1)"><g fill="none" fill-rule="evenodd" stroke="none" style="fill-opacity: 0.7;" class="secondary-fill">
    
    
  </g><g fill="none" transform="translate(19.09 19.09)" stroke="none" style="fill-opacity: 0.7;" class="secondary-fill">
      <path d="M31.1818182 22.9090909L26.0909091 22.9090909C25.9655455 22.9090909 25.8420909 22.9466364 25.7377273 23.016L22.0799091 25.4545455 9.73827273 25.4545455 6.08045455 23.016C5.97609091 22.9466364 5.85263636 22.9090909 5.72727273 22.9090909L.636363636 22.9090909C.285090909 22.9090909 0 23.1935455 0 23.5454545L0 31.1818182C0 31.5337273.285090909 31.8181818.636363636 31.8181818L31.1818182 31.8181818C31.5337273 31.8181818 31.8181818 31.5337273 31.8181818 31.1818182L31.8181818 23.5454545C31.8181818 23.1935455 31.5337273 22.9090909 31.1818182 22.9090909L31.1818182 22.9090909zM15.4591818 21.4499091C15.5832727 21.574 15.7461818 21.6363636 15.9090909 21.6363636 16.072 21.6363636 16.2349091 21.574 16.359 21.4499091L23.9953636 13.8135455C24.1773636 13.6315455 24.2320909 13.3579091 24.1334545 13.1199091 24.0354545 12.8825455 23.8025455 12.7272727 23.5454545 12.7272727L20.3636364 12.7272727 20.3636364.636363636C20.3636364.285090909 20.0791818 0 19.7272727 0L12.0909091 0C11.7396364 0 11.4545455.285090909 11.4545455.636363636L11.4545455 12.7272727 8.27272727 12.7272727C8.01563636 12.7272727 7.78336364 12.8825455 7.68472727 13.1199091 7.58609091 13.3579091 7.64081818 13.6315455 7.82281818 13.8135455L15.4591818 21.4499091 15.4591818 21.4499091z" fill="none" stroke="none" style="fill-opacity: 0.7;" class="secondary-fill"></path>
    </g></g><g class="white-layer"><g fill="#ffffff" fill-rule="evenodd" stroke="none">
    
    
  </g><g fill="#ffffff" transform="translate(19.09 19.09)" stroke="none">
      <path d="M31.1818182 22.9090909L26.0909091 22.9090909C25.9655455 22.9090909 25.8420909 22.9466364 25.7377273 23.016L22.0799091 25.4545455 9.73827273 25.4545455 6.08045455 23.016C5.97609091 22.9466364 5.85263636 22.9090909 5.72727273 22.9090909L.636363636 22.9090909C.285090909 22.9090909 0 23.1935455 0 23.5454545L0 31.1818182C0 31.5337273.285090909 31.8181818.636363636 31.8181818L31.1818182 31.8181818C31.5337273 31.8181818 31.8181818 31.5337273 31.8181818 31.1818182L31.8181818 23.5454545C31.8181818 23.1935455 31.5337273 22.9090909 31.1818182 22.9090909L31.1818182 22.9090909zM15.4591818 21.4499091C15.5832727 21.574 15.7461818 21.6363636 15.9090909 21.6363636 16.072 21.6363636 16.2349091 21.574 16.359 21.4499091L23.9953636 13.8135455C24.1773636 13.6315455 24.2320909 13.3579091 24.1334545 13.1199091 24.0354545 12.8825455 23.8025455 12.7272727 23.5454545 12.7272727L20.3636364 12.7272727 20.3636364.636363636C20.3636364.285090909 20.0791818 0 19.7272727 0L12.0909091 0C11.7396364 0 11.4545455.285090909 11.4545455.636363636L11.4545455 12.7272727 8.27272727 12.7272727C8.01563636 12.7272727 7.78336364 12.8825455 7.68472727 13.1199091 7.58609091 13.3579091 7.64081818 13.6315455 7.82281818 13.8135455L15.4591818 21.4499091 15.4591818 21.4499091z" fill="#ffffff" stroke="none"></path>
    </g></g><g class="base"><g fill="none" fill-rule="evenodd" stroke="none" style="fill-opacity: 0.1;" class="main-stroke main-fill">
    
    
  </g><g fill="none" transform="translate(19.09 19.09)" stroke="none" style="fill-opacity: 0.1;" class="main-stroke main-fill">
      <path d="M31.1818182 22.9090909L26.0909091 22.9090909C25.9655455 22.9090909 25.8420909 22.9466364 25.7377273 23.016L22.0799091 25.4545455 9.73827273 25.4545455 6.08045455 23.016C5.97609091 22.9466364 5.85263636 22.9090909 5.72727273 22.9090909L.636363636 22.9090909C.285090909 22.9090909 0 23.1935455 0 23.5454545L0 31.1818182C0 31.5337273.285090909 31.8181818.636363636 31.8181818L31.1818182 31.8181818C31.5337273 31.8181818 31.8181818 31.5337273 31.8181818 31.1818182L31.8181818 23.5454545C31.8181818 23.1935455 31.5337273 22.9090909 31.1818182 22.9090909L31.1818182 22.9090909zM15.4591818 21.4499091C15.5832727 21.574 15.7461818 21.6363636 15.9090909 21.6363636 16.072 21.6363636 16.2349091 21.574 16.359 21.4499091L23.9953636 13.8135455C24.1773636 13.6315455 24.2320909 13.3579091 24.1334545 13.1199091 24.0354545 12.8825455 23.8025455 12.7272727 23.5454545 12.7272727L20.3636364 12.7272727 20.3636364.636363636C20.3636364.285090909 20.0791818 0 19.7272727 0L12.0909091 0C11.7396364 0 11.4545455.285090909 11.4545455.636363636L11.4545455 12.7272727 8.27272727 12.7272727C8.01563636 12.7272727 7.78336364 12.8825455 7.68472727 13.1199091 7.58609091 13.3579091 7.64081818 13.6315455 7.82281818 13.8135455L15.4591818 21.4499091 15.4591818 21.4499091z" fill="none" stroke="none" style="fill-opacity: 0.1;" class="main-stroke main-fill"></path>
    </g></g><style>
          .main-fill {fill: #00828c;}
          .main-stroke {stroke: #00828c;}
          .secondary-fill {fill: #ffd7c2;}
          .secondary-stroke {stroke: #ffd7c2;}

          .main-fill--darken {fill: #003b3f;}
          .main-stroke--darken {stroke: #003b3f;}
          .secondary-fill--darken {fill: #ffa575;}
          .secondary-stroke--darken {stroke: #ffa575;}

          .main-fill--darkener {fill: #000c0c;}
          .main-stroke--darkener {stroke: #000c0c;}
          .secondary-fill--darkener {fill: #ff8342;}
          .secondary-stroke--darkener {stroke: #ff8342;}
        </style></svg>