<svg xmlns="http://www.w3.org/2000/svg" width="70" height="70" viewBox="0 0 70 70" style="width: 100%; height: 100%;"><desc>Made with illustrio</desc>
  
<g class="shadow2" transform="matrix(1,0,0,1,0,2)"><g fill="none" fill-rule="evenodd" stroke="none" style="fill-opacity: 0.7;" class="secondary-fill">
    
    
    <path fill="none" d="M11.1305147,0.149132941 C9.52459118,0.149132941 8.23529412,1.43843 8.23529412,3.04435353 L8.23529412,4.26678 L22.6341912,4.26678 C25.1216486,4.26678 27.1764706,6.32160118 27.1764706,8.80905941 L27.1764706,20.3127359 C27.1764706,20.9205978 27.0507918,21.5044793 26.8290441,22.0370006 L30.4705882,25.6785447 L30.4705882,18.26678 L31.6930147,18.26678 C33.2989382,18.26678 34.5882353,16.9774829 34.5882353,15.3715594 L34.5882353,3.04435353 C34.5882353,1.43843 33.2989382,0.149132941 31.6930147,0.149132941 L11.1305147,0.149132941 Z M2.89522059,5.91383882 C1.28929706,5.91383882 0,7.20313588 0,8.80905941 L0,20.3127359 C0,21.9186594 1.28929706,23.2079565 2.89522059,23.2079565 L4.11764706,23.2079565 L4.11764706,30.6197212 L11.5294118,23.2079565 L22.6341912,23.2079565 C24.2401147,23.2079565 25.5294118,21.9186594 25.5294118,20.3127359 L25.5294118,8.80905941 C25.5294118,7.20313588 24.2401147,5.91383882 22.6341912,5.91383882 L2.89522059,5.91383882 Z M5.35294118,11.26678 L20.1764706,11.26678 C20.6327059,11.26678 21,11.6340741 21,12.0903094 C21,12.5465447 20.6327059,12.9138388 20.1764706,12.9138388 L5.35294118,12.9138388 C4.89670588,12.9138388 4.52941176,12.5465447 4.52941176,12.0903094 C4.52941176,11.6340741 4.89670588,11.26678 5.35294118,11.26678 Z M5.35294118,16.2079565 L12.7647059,16.2079565 C13.2209412,16.2079565 13.5882353,16.5752506 13.5882353,17.0314859 C13.5882353,17.4877212 13.2209412,17.8550153 12.7647059,17.8550153 L5.35294118,17.8550153 C4.89670588,17.8550153 4.52941176,17.4877212 4.52941176,17.0314859 C4.52941176,16.5752506 4.89670588,16.2079565 5.35294118,16.2079565 Z" transform="translate(17.706 19.616)" stroke="none" style="fill-opacity: 0.7;" class="secondary-fill"></path>
  </g></g><g class="shadow" transform="matrix(1,0,0,1,0,1)"><g fill="none" fill-rule="evenodd" stroke="none" style="fill-opacity: 0.7;" class="secondary-fill">
    
    
    <path fill="none" d="M11.1305147,0.149132941 C9.52459118,0.149132941 8.23529412,1.43843 8.23529412,3.04435353 L8.23529412,4.26678 L22.6341912,4.26678 C25.1216486,4.26678 27.1764706,6.32160118 27.1764706,8.80905941 L27.1764706,20.3127359 C27.1764706,20.9205978 27.0507918,21.5044793 26.8290441,22.0370006 L30.4705882,25.6785447 L30.4705882,18.26678 L31.6930147,18.26678 C33.2989382,18.26678 34.5882353,16.9774829 34.5882353,15.3715594 L34.5882353,3.04435353 C34.5882353,1.43843 33.2989382,0.149132941 31.6930147,0.149132941 L11.1305147,0.149132941 Z M2.89522059,5.91383882 C1.28929706,5.91383882 0,7.20313588 0,8.80905941 L0,20.3127359 C0,21.9186594 1.28929706,23.2079565 2.89522059,23.2079565 L4.11764706,23.2079565 L4.11764706,30.6197212 L11.5294118,23.2079565 L22.6341912,23.2079565 C24.2401147,23.2079565 25.5294118,21.9186594 25.5294118,20.3127359 L25.5294118,8.80905941 C25.5294118,7.20313588 24.2401147,5.91383882 22.6341912,5.91383882 L2.89522059,5.91383882 Z M5.35294118,11.26678 L20.1764706,11.26678 C20.6327059,11.26678 21,11.6340741 21,12.0903094 C21,12.5465447 20.6327059,12.9138388 20.1764706,12.9138388 L5.35294118,12.9138388 C4.89670588,12.9138388 4.52941176,12.5465447 4.52941176,12.0903094 C4.52941176,11.6340741 4.89670588,11.26678 5.35294118,11.26678 Z M5.35294118,16.2079565 L12.7647059,16.2079565 C13.2209412,16.2079565 13.5882353,16.5752506 13.5882353,17.0314859 C13.5882353,17.4877212 13.2209412,17.8550153 12.7647059,17.8550153 L5.35294118,17.8550153 C4.89670588,17.8550153 4.52941176,17.4877212 4.52941176,17.0314859 C4.52941176,16.5752506 4.89670588,16.2079565 5.35294118,16.2079565 Z" transform="translate(17.706 19.616)" stroke="none" style="fill-opacity: 0.7;" class="secondary-fill"></path>
  </g></g><g class="white-layer"><g fill="#ffffff" fill-rule="evenodd" stroke="none">
    
    
    <path fill="#ffffff" d="M11.1305147,0.149132941 C9.52459118,0.149132941 8.23529412,1.43843 8.23529412,3.04435353 L8.23529412,4.26678 L22.6341912,4.26678 C25.1216486,4.26678 27.1764706,6.32160118 27.1764706,8.80905941 L27.1764706,20.3127359 C27.1764706,20.9205978 27.0507918,21.5044793 26.8290441,22.0370006 L30.4705882,25.6785447 L30.4705882,18.26678 L31.6930147,18.26678 C33.2989382,18.26678 34.5882353,16.9774829 34.5882353,15.3715594 L34.5882353,3.04435353 C34.5882353,1.43843 33.2989382,0.149132941 31.6930147,0.149132941 L11.1305147,0.149132941 Z M2.89522059,5.91383882 C1.28929706,5.91383882 0,7.20313588 0,8.80905941 L0,20.3127359 C0,21.9186594 1.28929706,23.2079565 2.89522059,23.2079565 L4.11764706,23.2079565 L4.11764706,30.6197212 L11.5294118,23.2079565 L22.6341912,23.2079565 C24.2401147,23.2079565 25.5294118,21.9186594 25.5294118,20.3127359 L25.5294118,8.80905941 C25.5294118,7.20313588 24.2401147,5.91383882 22.6341912,5.91383882 L2.89522059,5.91383882 Z M5.35294118,11.26678 L20.1764706,11.26678 C20.6327059,11.26678 21,11.6340741 21,12.0903094 C21,12.5465447 20.6327059,12.9138388 20.1764706,12.9138388 L5.35294118,12.9138388 C4.89670588,12.9138388 4.52941176,12.5465447 4.52941176,12.0903094 C4.52941176,11.6340741 4.89670588,11.26678 5.35294118,11.26678 Z M5.35294118,16.2079565 L12.7647059,16.2079565 C13.2209412,16.2079565 13.5882353,16.5752506 13.5882353,17.0314859 C13.5882353,17.4877212 13.2209412,17.8550153 12.7647059,17.8550153 L5.35294118,17.8550153 C4.89670588,17.8550153 4.52941176,17.4877212 4.52941176,17.0314859 C4.52941176,16.5752506 4.89670588,16.2079565 5.35294118,16.2079565 Z" transform="translate(17.706 19.616)" stroke="none"></path>
  </g></g><g class="base"><g fill="none" fill-rule="evenodd" stroke="none" style="fill-opacity: 0.1;" class="main-stroke main-fill">
    
    
    <path fill="none" d="M11.1305147,0.149132941 C9.52459118,0.149132941 8.23529412,1.43843 8.23529412,3.04435353 L8.23529412,4.26678 L22.6341912,4.26678 C25.1216486,4.26678 27.1764706,6.32160118 27.1764706,8.80905941 L27.1764706,20.3127359 C27.1764706,20.9205978 27.0507918,21.5044793 26.8290441,22.0370006 L30.4705882,25.6785447 L30.4705882,18.26678 L31.6930147,18.26678 C33.2989382,18.26678 34.5882353,16.9774829 34.5882353,15.3715594 L34.5882353,3.04435353 C34.5882353,1.43843 33.2989382,0.149132941 31.6930147,0.149132941 L11.1305147,0.149132941 Z M2.89522059,5.91383882 C1.28929706,5.91383882 0,7.20313588 0,8.80905941 L0,20.3127359 C0,21.9186594 1.28929706,23.2079565 2.89522059,23.2079565 L4.11764706,23.2079565 L4.11764706,30.6197212 L11.5294118,23.2079565 L22.6341912,23.2079565 C24.2401147,23.2079565 25.5294118,21.9186594 25.5294118,20.3127359 L25.5294118,8.80905941 C25.5294118,7.20313588 24.2401147,5.91383882 22.6341912,5.91383882 L2.89522059,5.91383882 Z M5.35294118,11.26678 L20.1764706,11.26678 C20.6327059,11.26678 21,11.6340741 21,12.0903094 C21,12.5465447 20.6327059,12.9138388 20.1764706,12.9138388 L5.35294118,12.9138388 C4.89670588,12.9138388 4.52941176,12.5465447 4.52941176,12.0903094 C4.52941176,11.6340741 4.89670588,11.26678 5.35294118,11.26678 Z M5.35294118,16.2079565 L12.7647059,16.2079565 C13.2209412,16.2079565 13.5882353,16.5752506 13.5882353,17.0314859 C13.5882353,17.4877212 13.2209412,17.8550153 12.7647059,17.8550153 L5.35294118,17.8550153 C4.89670588,17.8550153 4.52941176,17.4877212 4.52941176,17.0314859 C4.52941176,16.5752506 4.89670588,16.2079565 5.35294118,16.2079565 Z" transform="translate(17.706 19.616)" stroke="none" style="fill-opacity: 0.1;" class="main-stroke main-fill"></path>
  </g></g><style>
          .main-fill {fill: #00828c;}
          .main-stroke {stroke: #00828c;}
          .secondary-fill {fill: #ffd7c2;}
          .secondary-stroke {stroke: #ffd7c2;}

          .main-fill--darken {fill: #003b3f;}
          .main-stroke--darken {stroke: #003b3f;}
          .secondary-fill--darken {fill: #ffa575;}
          .secondary-stroke--darken {stroke: #ffa575;}

          .main-fill--darkener {fill: #000c0c;}
          .main-stroke--darkener {stroke: #000c0c;}
          .secondary-fill--darkener {fill: #ff8342;}
          .secondary-stroke--darkener {stroke: #ff8342;}
        </style></svg>