<svg xmlns="http://www.w3.org/2000/svg" xmlns:xlink="http://www.w3.org/1999/xlink" id="图层_1" x="0" y="0" version="1.1" viewBox="0 0 70 70" xml:space="preserve" style="enable-background:new 0 0 70 70"><style type="text/css">.st0{fill:#ffd7c2;fill-opacity:.7}.st1{fill:#fff}.st2{fill:#00828c;fill-opacity:.1;stroke:#00828c}</style><desc>Made with illustrio</desc><g><g><path d="M35,24.3c-2,0-3.7,1.7-3.7,3.7s1.7,3.7,3.7,3.7c2,0,3.7-1.7,3.7-3.7S37,24.3,35,24.3z M35,35 c-4.3,0-7.8,2.4-7.8,4.5v6.2h15.6v-6.2C42.8,37.4,39.3,35,35,35z" class="st0" transform="matrix(1,0,0,1,0,2)"/></g></g><g><g><path d="M35,24.3c-2,0-3.7,1.7-3.7,3.7s1.7,3.7,3.7,3.7c2,0,3.7-1.7,3.7-3.7S37,24.3,35,24.3z M35,35 c-4.3,0-7.8,2.4-7.8,4.5v6.2h15.6v-6.2C42.8,37.4,39.3,35,35,35z" class="st0" transform="matrix(1,0,0,1,0,1)"/></g></g><g><g><path d="M35,24.3c-2,0-3.7,1.7-3.7,3.7s1.7,3.7,3.7,3.7c2,0,3.7-1.7,3.7-3.7S37,24.3,35,24.3z M35,35 c-4.3,0-7.8,2.4-7.8,4.5v6.2h15.6v-6.2C42.8,37.4,39.3,35,35,35z" class="st1"/></g></g><g><g><path d="M35,24.3c-2,0-3.7,1.7-3.7,3.7s1.7,3.7,3.7,3.7c2,0,3.7-1.7,3.7-3.7S37,24.3,35,24.3z M35,35 c-4.3,0-7.8,2.4-7.8,4.5v6.2h15.6v-6.2C42.8,37.4,39.3,35,35,35z" class="st2"/></g></g></svg>