<?xml version="1.0" encoding="utf-8"?>
<!-- Generator: Adobe Illustrator 22.0.0, SVG Export Plug-In . SVG Version: 6.00 Build 0)  -->
<svg version="1.1" id="图层_1" xmlns="http://www.w3.org/2000/svg" xmlns:xlink="http://www.w3.org/1999/xlink" x="0px" y="0px"
	 viewBox="0 0 70 70" style="enable-background:new 0 0 70 70;" xml:space="preserve">
<style type="text/css">
	.st0{fill:#FFD7C2;fill-opacity:0.7;}
	.st1{fill:#FFFFFF;}
	.st2{fill:#00828C;fill-opacity:0.1;stroke:#00828C;}
</style>
<desc>Made with illustrio</desc>
<g transform="matrix(1,0,0,1,0,2)">
	<g>
		<path class="st0" d="M35,24.3c-2,0-3.7,1.7-3.7,3.7s1.7,3.7,3.7,3.7c2,0,3.7-1.7,3.7-3.7S37,24.3,35,24.3z M35,35
			c-4.3,0-7.8,2.4-7.8,4.5v6.2h15.6v-6.2C42.8,37.4,39.3,35,35,35z"/>
	</g>
</g>
<g transform="matrix(1,0,0,1,0,1)">
	<g>
		<path class="st0" d="M35,24.3c-2,0-3.7,1.7-3.7,3.7s1.7,3.7,3.7,3.7c2,0,3.7-1.7,3.7-3.7S37,24.3,35,24.3z M35,35
			c-4.3,0-7.8,2.4-7.8,4.5v6.2h15.6v-6.2C42.8,37.4,39.3,35,35,35z"/>
	</g>
</g>
<g>
	<g>
		<path class="st1" d="M35,24.3c-2,0-3.7,1.7-3.7,3.7s1.7,3.7,3.7,3.7c2,0,3.7-1.7,3.7-3.7S37,24.3,35,24.3z M35,35
			c-4.3,0-7.8,2.4-7.8,4.5v6.2h15.6v-6.2C42.8,37.4,39.3,35,35,35z"/>
	</g>
</g>
<g>
	<g>
		<path class="st2" d="M35,24.3c-2,0-3.7,1.7-3.7,3.7s1.7,3.7,3.7,3.7c2,0,3.7-1.7,3.7-3.7S37,24.3,35,24.3z M35,35
			c-4.3,0-7.8,2.4-7.8,4.5v6.2h15.6v-6.2C42.8,37.4,39.3,35,35,35z"/>
	</g>
</g>
</svg>
