<svg xmlns="http://www.w3.org/2000/svg" xmlns:xlink="http://www.w3.org/1999/xlink" id="图层_1" x="0" y="0" version="1.1" viewBox="0 0 70 70" xml:space="preserve" style="enable-background:new 0 0 70 70"><style type="text/css">.st0,.st1{fill:#ffd7c2;fill-opacity:.7}.st1{fill:#0036b5}.st2{fill:#fff}.st3{fill:#00828c;fill-opacity:.1;stroke:#00828c}</style><desc>Made with illustrio</desc><g><g><path d="M18.1,16.9c-0.5,0-0.8,0.4-0.8,0.8c0,0.1,0,0.1,0,0.2c0.1,0.2,9.9,34.7,9.9,34.8c0.1,0.3,0.4,0.4,0.7,0.4 c0.5,0,0.8-0.4,0.8-0.8c0-0.1,0-0.1,0-0.2c-0.1-0.2-9.9-34.6-9.9-34.7C18.7,17,18.4,16.9,18.1,16.9z M20.7,17.7l4.1,14.4h1.9 c6,0,6.4,7.4,12.8,7.4c4.9,0,9.7-4.7,13.2-8.6h-7c-7.5,0-6.7-13.2-17.3-13.2H20.7z" class="st0" transform="matrix(1,0,0,1,0,2)"/></g></g><g><g><path d="M18.1,16.9c-0.5,0-0.8,0.4-0.8,0.8c0,0.1,0,0.1,0,0.2c0.1,0.2,9.9,34.7,9.9,34.8c0.1,0.3,0.4,0.4,0.7,0.4 c0.5,0,0.8-0.4,0.8-0.8c0-0.1,0-0.1,0-0.2c-0.1-0.2-9.9-34.6-9.9-34.7C18.7,17,18.4,16.9,18.1,16.9z M20.7,17.7l4.1,14.4h1.9 c6,0,6.4,7.4,12.8,7.4c4.9,0,9.7-4.7,13.2-8.6h-7c-7.5,0-6.7-13.2-17.3-13.2H20.7z" class="st1" transform="matrix(1,0,0,1,0,1)"/></g></g><g><g><path d="M18.1,16.9c-0.5,0-0.8,0.4-0.8,0.8c0,0.1,0,0.1,0,0.2c0.1,0.2,9.9,34.7,9.9,34.8c0.1,0.3,0.4,0.4,0.7,0.4 c0.5,0,0.8-0.4,0.8-0.8c0-0.1,0-0.1,0-0.2c-0.1-0.2-9.9-34.6-9.9-34.7C18.7,17,18.4,16.9,18.1,16.9z M20.7,17.7l4.1,14.4h1.9 c6,0,6.4,7.4,12.8,7.4c4.9,0,9.7-4.7,13.2-8.6h-7c-7.5,0-6.7-13.2-17.3-13.2H20.7z" class="st2"/></g></g><g><g><path d="M18.1,16.9c-0.5,0-0.8,0.4-0.8,0.8c0,0.1,0,0.1,0,0.2c0.1,0.2,9.9,34.7,9.9,34.8c0.1,0.3,0.4,0.4,0.7,0.4 c0.5,0,0.8-0.4,0.8-0.8c0-0.1,0-0.1,0-0.2c-0.1-0.2-9.9-34.6-9.9-34.7C18.7,17,18.4,16.9,18.1,16.9z M20.7,17.7l4.1,14.4h1.9 c6,0,6.4,7.4,12.8,7.4c4.9,0,9.7-4.7,13.2-8.6h-7c-7.5,0-6.7-13.2-17.3-13.2H20.7z" class="st3"/></g></g></svg>