<?xml version="1.0" encoding="utf-8"?>
<!-- Generator: Adobe Illustrator 22.0.0, SVG Export Plug-In . SVG Version: 6.00 Build 0)  -->
<svg version="1.1" id="图层_1" xmlns="http://www.w3.org/2000/svg" xmlns:xlink="http://www.w3.org/1999/xlink" x="0px" y="0px"
	 viewBox="0 0 70 70" style="enable-background:new 0 0 70 70;" xml:space="preserve">
<style type="text/css">
	.st0{fill:#FFD7C2;fill-opacity:0.7;}
	.st1{fill:#0036B5;fill-opacity:0.7;}
	.st2{fill:#FFFFFF;}
	.st3{fill:#00828C;fill-opacity:0.1;stroke:#00828C;}
</style>
<desc>Made with illustrio</desc>
<g transform="matrix(1,0,0,1,0,2)">
	<g>
		<path class="st0" d="M18.1,16.9c-0.5,0-0.8,0.4-0.8,0.8c0,0.1,0,0.1,0,0.2c0.1,0.2,9.9,34.7,9.9,34.8c0.1,0.3,0.4,0.4,0.7,0.4
			c0.5,0,0.8-0.4,0.8-0.8c0-0.1,0-0.1,0-0.2c-0.1-0.2-9.9-34.6-9.9-34.7C18.7,17,18.4,16.9,18.1,16.9z M20.7,17.7l4.1,14.4h1.9
			c6,0,6.4,7.4,12.8,7.4c4.9,0,9.7-4.7,13.2-8.6h-7c-7.5,0-6.7-13.2-17.3-13.2H20.7z"/>
	</g>
</g>
<g transform="matrix(1,0,0,1,0,1)">
	<g>
		<path class="st1" d="M18.1,16.9c-0.5,0-0.8,0.4-0.8,0.8c0,0.1,0,0.1,0,0.2c0.1,0.2,9.9,34.7,9.9,34.8c0.1,0.3,0.4,0.4,0.7,0.4
			c0.5,0,0.8-0.4,0.8-0.8c0-0.1,0-0.1,0-0.2c-0.1-0.2-9.9-34.6-9.9-34.7C18.7,17,18.4,16.9,18.1,16.9z M20.7,17.7l4.1,14.4h1.9
			c6,0,6.4,7.4,12.8,7.4c4.9,0,9.7-4.7,13.2-8.6h-7c-7.5,0-6.7-13.2-17.3-13.2H20.7z"/>
	</g>
</g>
<g>
	<g>
		<path class="st2" d="M18.1,16.9c-0.5,0-0.8,0.4-0.8,0.8c0,0.1,0,0.1,0,0.2c0.1,0.2,9.9,34.7,9.9,34.8c0.1,0.3,0.4,0.4,0.7,0.4
			c0.5,0,0.8-0.4,0.8-0.8c0-0.1,0-0.1,0-0.2c-0.1-0.2-9.9-34.6-9.9-34.7C18.7,17,18.4,16.9,18.1,16.9z M20.7,17.7l4.1,14.4h1.9
			c6,0,6.4,7.4,12.8,7.4c4.9,0,9.7-4.7,13.2-8.6h-7c-7.5,0-6.7-13.2-17.3-13.2H20.7z"/>
	</g>
</g>
<g>
	<g>
		<path class="st3" d="M18.1,16.9c-0.5,0-0.8,0.4-0.8,0.8c0,0.1,0,0.1,0,0.2c0.1,0.2,9.9,34.7,9.9,34.8c0.1,0.3,0.4,0.4,0.7,0.4
			c0.5,0,0.8-0.4,0.8-0.8c0-0.1,0-0.1,0-0.2c-0.1-0.2-9.9-34.6-9.9-34.7C18.7,17,18.4,16.9,18.1,16.9z M20.7,17.7l4.1,14.4h1.9
			c6,0,6.4,7.4,12.8,7.4c4.9,0,9.7-4.7,13.2-8.6h-7c-7.5,0-6.7-13.2-17.3-13.2H20.7z"/>
	</g>
</g>
</svg>
