<svg xmlns="http://www.w3.org/2000/svg" xmlns:xlink="http://www.w3.org/1999/xlink" width="200" height="200" class="icon" p-id="2387" t="1524907606030" version="1.1" viewBox="0 0 1024 1024"><defs><style type="text/css"/></defs><path fill="#fff" d="M512.001535 64.294328c-247.26864 0-447.707718 200.452381-447.707718 447.708741 0 247.264547 200.439078 447.702602 447.707718 447.702602 247.252267 0 447.703625-200.438055 447.703625-447.702602C959.70516 264.74671 759.253802 64.294328 512.001535 64.294328L512.001535 64.294328 512.001535 64.294328zM741.866806 664.565744c-10.609639 2.309602-30.937616-14.836917-50.79999-41.684378-4.372587 29.579689-18.875906 56.589856-40.574091 78.604242 36.94954 11.80486 61.615313 34.174334 58.736752 56.43943-3.625574 28.248368-50.291406 45.664016-104.210433 38.907125-37.72623-4.773723-69.022003-20.119223-83.142605-38.60832-5.802146 0.448208-11.68104 0.671289-17.636682 0.671289-3.463891 0-6.897084-0.072655-10.31288-0.223081-13.223163 19.396769-46.427402 35.45449-87.122243 39.814798-55.607482 5.939269-104.093776-12.223393-108.329241-40.562834-3.390213-22.415522 21.968337-44.514843 60.258409-55.69344-23.098068-23.178909-38.21844-51.948139-41.841967-83.48439-22.373567 26.78811-45.144176 41.219797-53.892421 36.638455-17.040095-8.971325-21.159926-64.035432 6.507204-118.538767 9.986445-19.652596 22.176069-36.770462 34.669614-50.113351-3.762697-7.17747-6.02932-16.387225-6.02932-26.412556 0-17.295921 6.711865-32.131815 16.279778-38.401612-1.555425-9.730619-2.356674-19.695574-2.356674-29.861098 0-105.687064 87.330998-191.332676 195.033975-191.332676 107.761306 0 195.1097 85.644589 195.1097 191.332676 0 9.060353-0.64059 17.971303-1.877767 26.684756 14.371312 0.37146 25.963325 18.84623 25.963325 41.577954 0 16.442484-6.072299 30.652114-14.875802 37.397748 10.803044 14.132882 20.99415 31.518854 28.977985 50.754964C763.415588 603.927689 754.433006 661.833517 741.866806 664.565744L741.866806 664.565744 741.866806 664.565744zM741.866806 664.565744" p-id="2388"/></svg>