<?xml version="1.0" encoding="utf-8"?>
<!-- Generator: Adobe Illustrator 22.0.1, SVG Export Plug-In . SVG Version: 6.00 Build 0)  -->
<svg version="1.1" id="Layer_1" xmlns="http://www.w3.org/2000/svg" xmlns:xlink="http://www.w3.org/1999/xlink" x="0px" y="0px"
	 viewBox="0 0 200 200" style="enable-background:new 0 0 200 200;" xml:space="preserve">
<style type="text/css">
	.st0{fill:#FFFFFF;}
</style>
<path class="st0" d="M97.6,30.8c-43.2,0-78.2,35-78.2,78.2s35,78.2,78.2,78.2s78.2-35,78.2-78.2S140.8,30.8,97.6,30.8z M97.6,180.6
	c-39.5,0-71.5-32-71.5-71.5c0-39.5,32-71.5,71.5-71.5c39.5,0,71.5,32,71.5,71.5C169.2,148.5,137.1,180.6,97.6,180.6z"/>
<path class="st0" d="M142.9,139.5c-2.1,0.5-6-2.9-9.9-8.1c-0.9,5.8-3.7,11.1-7.9,15.4c7.2,2.3,12,6.7,11.5,11
	c-0.7,5.5-9.8,8.9-20.4,7.6c-7.4-0.9-13.5-3.9-16.2-7.5c-1.1,0.1-2.3,0.1-3.4,0.1c-0.7,0-1.3,0-2,0c-2.6,3.8-9.1,6.9-17,7.8
	c-10.9,1.2-20.3-2.4-21.2-7.9c-0.7-4.4,4.3-8.7,11.8-10.9c-4.5-4.5-7.5-10.1-8.2-16.3c-4.4,5.2-8.8,8.1-10.5,7.2
	c-3.3-1.8-4.1-12.5,1.3-23.2c2-3.8,4.3-7.2,6.8-9.8c-0.7-1.4-1.2-3.2-1.2-5.2c0-3.4,1.3-6.3,3.2-7.5c-0.3-1.9-0.5-3.8-0.5-5.8
	C59,65.7,76,49,97,49c21,0,38.1,16.7,38.1,37.4c0,1.8-0.1,3.5-0.4,5.2c2.8,0.1,5.1,3.7,5.1,8.1c0,3.2-1.2,6-2.9,7.3
	c2.1,2.8,4.1,6.2,5.7,9.9C147.1,127.7,145.4,139,142.9,139.5L142.9,139.5L142.9,139.5z"/>
</svg>
