<svg xmlns="http://www.w3.org/2000/svg" id="Layer_1" data-name="Layer 1" viewBox="0 0 140 50.48"><defs><style>.cls-1{fill:#fff}</style></defs><title>tensor_logo</title><path d="M683,606.27c-.18,1-.38,1.91-.55,2.87-.91,5.13-1.8,10.25-2.71,15.38-.38,2.19-.77,4.37-1.15,6.56a2.73,2.73,0,0,1-2.87,2.61c-1.73.07-3.46,0-5.23,0,.19-1,.37-2.05.57-3.14h2.52a1.11,1.11,0,0,0,1.29-1.07c.85-4.77,1.68-9.53,2.52-14.3.33-1.85.66-3.71,1-5.62l-.5,0H660.05c-.36,0-.49.1-.56.46q-1.34,7.69-2.7,15.38-.72,4.13-1.47,8.23c0,.13-.19.34-.3.34-1.22,0-2.44,0-3.74,0,1.64-9.3,3.26-18.55,4.9-27.87H683Z" class="cls-1" transform="translate(-543.02 -594.81)"/><path d="M594.86,645.29a.93.93,0,0,1,.15-1.64,1,1,0,0,1,.84.06c.17.13.21.51.2.77,0,.43-.39.63-.73.81Z" class="cls-1" transform="translate(-543.02 -594.81)"/><path d="M651.18,645.29a1,1,0,0,1,.22-1.69.69.69,0,0,1,.87.17.84.84,0,0,1,0,1.07,2.72,2.72,0,0,1-.5.45Z" class="cls-1" transform="translate(-543.02 -594.81)"/><path d="M555.29,611,543,613.34l.29-7.89,4.2-.37,7-.57a1.27,1.27,0,0,1,.71.2,5.77,5.77,0,0,0,7.17-.59,1.33,1.33,0,0,1,.75-.34q5.5-.49,11-.95a.61.61,0,0,1,.46.17c.78,1.12,1.53,2.25,2.34,3.45l-2.12.45c-4.41.89-8.82,1.79-13.24,2.67a.41.41,0,0,0-.39.41q-1.48,9.59-3,19.16-.75,4.77-1.48,9.54c0,.32-.14.52-.52.6-2.41.51-4.82,1.05-7.22,1.57l-.35,0Z" class="cls-1" transform="translate(-543.02 -594.81)"/><path d="M617.47,633.65c1-5.49,1.93-10.94,2.89-16.43h2.38c.25-1.4.49-2.77.73-4.14q.6-3.39,1.21-6.78c0-.13.2-.34.3-.34,1.21,0,2.42,0,3.7,0l-.29,2h7.2l-.59,3.33h-6.81c-.32,0-.45.07-.5.41-.3,1.84-.64,3.68-1,5.57h7c-.14.83-.27,1.6-.41,2.38q-1,5.65-2,11.31c-.41,2.28-1,2.81-3.36,2.81l-10.07,0Zm11.81-12.79h-5.79L621.91,630c1.54,0,3,0,4.51,0,1.05,0,1.31-.3,1.51-1.36.18-.91.33-1.83.49-2.75C628.7,624.24,629,622.57,629.28,620.86Z" class="cls-1" transform="translate(-543.02 -594.81)"/><path d="M663.41,616.12c.62-1.39,1.26-2.78,1.86-4.19a.81.81,0,0,1,.9-.6c1.76,0,3.52,0,5.33,0,.23,1.64.46,3.26.71,5,.11-.2.18-.3.23-.41.63-1.41,1.27-2.82,1.88-4.24a.5.5,0,0,1,.55-.35c1,0,1.92,0,3,0l-1.21,2.49c-1.17,2.38-2.35,4.76-3.5,7.14a1.39,1.39,0,0,0-.13.7c.19,2.47.41,4.94.63,7.42,0,.22,0,.45,0,.72h-3.3l-.19-2.19-.09,0c-.08.15-.16.3-.23.45-.43.85-.85,1.7-1.29,2.54-.06.12-.2.29-.3.29-1,0-2,0-3.06,0,.48-1,.91-1.92,1.36-2.84q1.44-3,2.87-6a1.42,1.42,0,0,0,.14-.7c-.32-3-.66-5.91-1-8.86,0-.06,0-.11-.06-.27-.11.19-.18.29-.23.4q-2.14,4.5-4.26,9a1.47,1.47,0,0,0-.13.75c.22,2.66.46,5.31.69,8,0,.16,0,.33,0,.54-1.09,0-2.15,0-3.2,0-.1,0-.26-.23-.28-.36-.09-.76-.14-1.52-.22-2.43-.24.42-.41.73-.57,1-.27.5-.53,1-.8,1.5-.06.11-.19.25-.28.25-1,0-1.93,0-3,0,.51-1.09,1-2.1,1.48-3.12.81-1.72,1.63-3.43,2.43-5.15a1.54,1.54,0,0,0,.14-.79c-.3-3.31-.63-6.62-1-9.93,0-.16,0-.32,0-.52h3.48c.16,1.58.31,3.16.47,4.74Z" class="cls-1" transform="translate(-543.02 -594.81)"/><path d="M648.76,614.75h-5.87l-.52,7.82.13,0,2.41-6h3.14c0,.11,0,.21-.07.3-1.33,3.14-2.64,6.29-4,9.42a4.08,4.08,0,0,1-1.5,2.05.6.6,0,0,0-.18.39c0,.31,0,.64-.06,1,0,.61.13.75.76.76h3.09l-.56,3.22h-1.12c-1.2,0-2.39,0-3.59,0a8.27,8.27,0,0,1-1.4-.19,1.09,1.09,0,0,1-.95-1.09c-.06-1.13-.06-2.26-.09-3.39v-.37H633l.55-3.17H638c.82,0,.67.06.71-.68q.27-4.84.52-9.68c0-.11,0-.21,0-.39h-3.57l.58-3.4h3.1c.12-1.82.24-3.61.35-5.4h3.78c-.12,1.81-.25,3.58-.37,5.38h6.31Z" class="cls-1" transform="translate(-543.02 -594.81)"/><path d="M609.22,619.9c-.54,3.12-1.1,6.24-1.64,9.37-.13.75.13,1.08.89,1.11,1.15,0,2.3,0,3.45,0h.6l-.62,3.51c-2.22-.06-4.41-.06-6.59-.18-1.26-.08-1.79-.73-1.69-2s.36-2.51.57-3.77q1.26-7.18,2.54-14.38c.44-2.48.87-5,1.31-7.42,0-.13.2-.34.31-.34,1.1,0,2.2,0,3.35,0l-1.22,7c.89.22,1.09.13,1.31-.7.39-1.45.77-2.9,1.12-4.36a.49.49,0,0,1,.59-.44c.8,0,1.59,0,2.43,0-.39,1.56-.75,3.1-1.17,4.61-.29,1-.63,2.08-1,3.1a1.94,1.94,0,0,1-2,1.26h-1.89l-.34,1.87h2.57v2.69c0,1.07,0,2.15,0,3.22,0,.72,0,.72.77.83-.17,1-.34,2-.53,3a.4.4,0,0,1-.3.23,16.8,16.8,0,0,1-1.88-.05,1,1,0,0,1-1-1c0-1,0-2,0-3.07,0-1.35.1-2.69.16-4Z" class="cls-1" transform="translate(-543.02 -594.81)"/><path d="M593.52,633.88l.62-3.5h3.12c1,0,1.27-.19,1.46-1.24.41-2.24.8-4.49,1.2-6.74a13.82,13.82,0,0,0,.21-1.59c-.35,1.2-.68,2.4-1,3.59-.26.85-.52,1.7-.85,2.52a2.14,2.14,0,0,1-2.2,1.42h-1.36c.18-1.06.36-2.1.56-3.13,0-.1.17-.24.25-.23.42,0,.57-.23.67-.56.33-1.11.67-2.22,1-3.34.26-.88.52-1.75.78-2.66h2.68l.34-1.89c-.67,0-1.3,0-1.92,0a1.12,1.12,0,0,1-1.23-1.15,7.62,7.62,0,0,1,0-1.51c.14-2.13.3-4.25.45-6.39h3c0,.68-.08,1.35-.13,2-.06.84-.14,1.68-.2,2.52a1.12,1.12,0,0,0,0,.55c.08.15.27.25.42.38.1-.13.26-.24.29-.38q.58-3.16,1.12-6.33c.05-.3.13-.42.45-.41,1,0,2.08,0,3.16,0-.21,1.21-.4,2.35-.61,3.5q-1.35,7.73-2.72,15.47c-.37,2.1-.74,4.19-1.12,6.29a8.62,8.62,0,0,1-.32,1.1,2.26,2.26,0,0,1-2.14,1.6c-1.35.07-2.7.07-4,.09C594.82,633.89,594.2,633.88,593.52,633.88Z" class="cls-1" transform="translate(-543.02 -594.81)"/><path d="M592.72,608.21l.42-2.37h3.67l-.4,2.34H598l-.58,3.33h-1.55l-.44,2.56h1.34l-.57,3.23H594.8c-.23,1.29-.45,2.55-.67,3.82-.62,3.42-1.18,6.85-1.86,10.26-.36,1.85-1.37,2.57-3.25,2.59h-3.49l.58-3.3H588a.85.85,0,0,0,.92-.73c.17-.77.3-1.56.44-2.34s.28-1.63.36-2.51c-.82,2.27-2.36,3.23-4.76,2.69l.56-3.18a1.23,1.23,0,0,1,.32,0c.71.11,1.07-.28,1.35-.86,1.47-3.06,3-6.11,4.39-9.2a9.51,9.51,0,0,0,.48-2.23c0-.24.07-.48.11-.76h-4l.58-3.31Z" class="cls-1" transform="translate(-543.02 -594.81)"/><path d="M572.07,629.56l8.63,3.77v.11l-15.24.75c.94-3.93,1.87-7.79,2.81-11.73l-8.2,2.57.87-6.87,13.47-1.39C573.62,621.06,572.85,625.29,572.07,629.56Z" class="cls-1" transform="translate(-543.02 -594.81)"/><path d="M553.68,599.76a4.81,4.81,0,1,1,5,4.66A4.8,4.8,0,0,1,553.68,599.76Z" class="cls-1" transform="translate(-543.02 -594.81)"/><path d="M669.75,644.23c.14-.83.27-1.61.41-2.39.17-1,.36-2,.51-2.94.05-.28.14-.4.44-.38s.85,0,1.32,0l0,.56c1.86-1,2.89-.9,4,.35a2.9,2.9,0,0,1,2.82-.95,1.35,1.35,0,0,1,1.44,1.54c-.06,1-.26,2-.41,3-.07.42-.19.82-.29,1.24h-1.65c.16-.9.3-1.75.45-2.61,0-.16,0-.33.08-.5.11-.8-.1-1.05-.9-1.11a1.37,1.37,0,0,0-1.6,1.13c-.23,1-.39,2-.59,3.08H674c.17-.94.33-1.87.49-2.8,0-.18,0-.36.07-.54a.71.71,0,0,0-.51-.78,1.52,1.52,0,0,0-2,1c-.2.91-.36,1.83-.5,2.75,0,.3-.17.39-.45.37Z" class="cls-1" transform="translate(-543.02 -594.81)"/><path d="M577.85,644.23l-.33-3-.14,0c-.07.12-.15.24-.21.36-.36.78-.72,1.56-1.06,2.35a.45.45,0,0,1-.47.32c-.69,0-1.38,0-2.12,0l-.7-5.74h1.76l.41,4,.12.06a2.66,2.66,0,0,0,.28-.38c.54-1.1,1.08-2.19,1.6-3.3a.6.6,0,0,1,.63-.4c1.11,0,1.1,0,1.23,1.14.11.91.24,1.82.36,2.73a3.39,3.39,0,0,0,.1.34,4.1,4.1,0,0,0,.34-.49c.51-1.11,1-2.22,1.51-3.34a.46.46,0,0,1,.52-.34c.44,0,.88,0,1.41,0l-.56,1.18c-.67,1.41-1.35,2.81-2,4.23a.55.55,0,0,1-.6.37C579.25,644.21,578.58,644.23,577.85,644.23Z" class="cls-1" transform="translate(-543.02 -594.81)"/><path d="M567.9,638.43l.55,4.08.13,0a1.92,1.92,0,0,0,.25-.38c.52-1.11,1-2.21,1.52-3.34a.52.52,0,0,1,.59-.36c.42,0,.85,0,1.36,0-.25.54-.48,1-.71,1.49-.64,1.33-1.28,2.65-1.9,4a.48.48,0,0,1-.49.31c-.7,0-1.4,0-2.15,0l-.32-3-.13,0a3.22,3.22,0,0,0-.25.39c-.35.78-.69,1.56-1.06,2.34a.55.55,0,0,1-.34.28c-.72,0-1.44,0-2.22,0l-.71-5.76c.55,0,1.07,0,1.58,0,.09,0,.21.25.22.4.12,1,.22,2.1.32,3.16,0,.14.05.29.1.57a3.23,3.23,0,0,0,.33-.41c.55-1.12,1.1-2.25,1.63-3.39a.52.52,0,0,1,.59-.36C567.14,638.45,567.5,638.43,567.9,638.43Z" class="cls-1" transform="translate(-543.02 -594.81)"/><path d="M588.18,641.18a4,4,0,0,0-.23.39c-.35.76-.7,1.51-1,2.27a.53.53,0,0,1-.58.37c-.66,0-1.32,0-2,0l-.7-5.74h1.76l.41,4,.14,0a4.3,4.3,0,0,0,.29-.45c.54-1.09,1.09-2.19,1.61-3.3a.46.46,0,0,1,.52-.32c.37,0,.73,0,1.14,0l.55,4.08.14,0a2.75,2.75,0,0,0,.25-.38c.52-1.11,1-2.23,1.52-3.35a.5.5,0,0,1,.55-.35c.44,0,.88,0,1.39,0l-1.26,2.67c-.45.93-.9,1.87-1.37,2.8,0,.12-.19.28-.3.28-.76,0-1.52,0-2.32,0l-.31-3Z" class="cls-1" transform="translate(-543.02 -594.81)"/><path d="M613.22,640.81c.22-.86.06-1.08-.84-1.09-.27,0-.55,0-.83,0a.92.92,0,0,0-.4.07,2.59,2.59,0,0,1-2,.31,1.62,1.62,0,0,1,1.72-1.7,28.76,28.76,0,0,1,3.08,0,1.1,1.1,0,0,1,1.08,1.37c-.15,1.44-.42,2.86-.64,4.3h-1.7l0-.39c-1.11.77-2.31.55-3.49.4a.78.78,0,0,1-.74-.85,7.16,7.16,0,0,1,.32-1.78,1.38,1.38,0,0,1,1.37-.9c.69,0,1.38,0,2.07,0A5.42,5.42,0,0,1,613.22,640.81Zm-1.75,2.08v0c.33,0,.67,0,1-.09s.45-.33.44-.64-.3-.33-.54-.35h-.78a2.87,2.87,0,0,0-.89.09.7.7,0,0,0-.36.54c0,.16.29.34.49.41A2,2,0,0,0,611.47,642.89Z" class="cls-1" transform="translate(-543.02 -594.81)"/><path d="M641.94,644.08h-1.68v-.35s-.09,0-.1,0a2.48,2.48,0,0,1-1.73.49c-.56,0-1.13-.05-1.69-.12a.8.8,0,0,1-.74-.85,5.67,5.67,0,0,1,.21-1.54,1.53,1.53,0,0,1,1.63-1.14c.57,0,1.14,0,1.7,0a9,9,0,0,1,1.21.21c.31-.73.1-1-.78-1h-.88c-.12,0-.29,0-.35.07-.57.66-1.31.23-2,.38a1.44,1.44,0,0,1,1.07-1.63,3.72,3.72,0,0,1,1-.16c.86,0,1.72,0,2.58,0a1.09,1.09,0,0,1,1.18,1.18,10,10,0,0,1-.16,1.63C642.29,642.15,642.11,643.1,641.94,644.08Zm-2.64-2.24v0a5.1,5.1,0,0,0-1,.11.78.78,0,0,0-.4.48c0,.11.16.42.26.42a15.92,15.92,0,0,0,2.07-.08c.11,0,.23-.4.23-.61s-.27-.24-.43-.28A4,4,0,0,0,639.3,641.84Z" class="cls-1" transform="translate(-543.02 -594.81)"/><path d="M619.36,638.32a17.16,17.16,0,0,1,1.91.17,1.07,1.07,0,0,1,1,1.31,24.59,24.59,0,0,1-.57,3.06c-.27,1.11-1.19,1.35-2.17,1.39-.82,0-1.65,0-2.48,0-1.29,0-1.8-.61-1.65-1.91a20.15,20.15,0,0,1,.41-2.3,2,2,0,0,1,2.08-1.65c.49,0,1,0,1.47,0Zm-.76,4.41h.51a1,1,0,0,0,1.15-1c.06-.3.12-.6.16-.91a.65.65,0,0,0-.65-.85,10,10,0,0,0-1.1,0c-.92,0-1.21.3-1.36,1.21C617.08,642.66,617.13,642.73,618.6,642.73Z" class="cls-1" transform="translate(-543.02 -594.81)"/><path d="M666.77,638.32a17.16,17.16,0,0,1,1.91.17,1.05,1.05,0,0,1,1,1.27,24.9,24.9,0,0,1-.51,3,1.76,1.76,0,0,1-1.77,1.46,28.62,28.62,0,0,1-3.34,0c-1-.08-1.32-.52-1.24-1.47a18.12,18.12,0,0,1,.5-2.93,1.89,1.89,0,0,1,1.94-1.39c.5,0,1,0,1.52,0Zm-.76,4.4h.65a.9.9,0,0,0,.92-.68,8.51,8.51,0,0,0,.25-1.3.59.59,0,0,0-.61-.71,10.85,10.85,0,0,0-1.14,0c-.92,0-1.22.31-1.37,1.21C664.48,642.65,664.54,642.73,666,642.72Z" class="cls-1" transform="translate(-543.02 -594.81)"/><path d="M631.52,639.11c.32-.18.58-.35.85-.47a3.76,3.76,0,0,1,2.52,0,1.14,1.14,0,0,1,.83,1.2,13.42,13.42,0,0,1-.18,1.78c-.13.87-.3,1.74-.46,2.64h-1.72c.16-.92.32-1.81.47-2.69l.06-.36c.13-.87,0-1-.85-1.13a1.55,1.55,0,0,0-1.93,1.4c-.17.89-.32,1.78-.49,2.69H628.9c.47-2.68.94-5.34,1.42-8H632Z" class="cls-1" transform="translate(-543.02 -594.81)"/><path d="M662.19,640.87h-1.63c-.17-.65-.28-.74-.95-.73-.39,0-.79,0-1.19.07a.8.8,0,0,0-.75.69,10.27,10.27,0,0,0-.17,1.09.52.52,0,0,0,.56.66c.51,0,1,0,1.52,0a.7.7,0,0,0,.72-.53c0-.1.2-.21.32-.22.47,0,.94,0,1.42,0a2.25,2.25,0,0,1-2.19,2.4q-1.33.06-2.67,0a1.38,1.38,0,0,1-1.49-1.66,15.17,15.17,0,0,1,.35-2.31,2.28,2.28,0,0,1,2.1-1.79,10.69,10.69,0,0,1,2.65,0C662.17,638.69,662.63,639.51,662.19,640.87Z" class="cls-1" transform="translate(-543.02 -594.81)"/><path d="M647.3,644.23c.15-.85.28-1.64.42-2.44,0-.2.07-.39.1-.59.13-.85-.1-1.11-1-1.14-1.24,0-1.72.34-1.94,1.57-.16.86-.31,1.71-.47,2.58h-1.71c.19-1.13.38-2.23.57-3.32.11-.64.24-1.27.33-1.9,0-.29.14-.43.46-.41s.85,0,1.3,0v.58a3.43,3.43,0,0,1,3.14-.7,1.24,1.24,0,0,1,1.18,1.43c-.17,1.38-.43,2.75-.66,4.12a.33.33,0,0,1-.24.2C648.32,644.24,647.84,644.23,647.3,644.23Z" class="cls-1" transform="translate(-543.02 -594.81)"/><path d="M628.81,638.47a2.5,2.5,0,0,1-.95,2.09,23.74,23.74,0,0,0-2.19,1.82,3.65,3.65,0,0,0-.35.41h2.86c-.07.42-.11.8-.2,1.16a.36.36,0,0,1-.27.22c-1.74,0-3.49,0-5.26,0a2.36,2.36,0,0,1,.89-2c.8-.53,1.51-1.2,2.26-1.81.12-.1.24-.22.45-.43h-2.66c.08-.47.13-.87.22-1.26a.37.37,0,0,1,.28-.22h4.83S628.77,638.44,628.81,638.47Z" class="cls-1" transform="translate(-543.02 -594.81)"/><path d="M601,637.27h1.7l-.18,1.22h2.76l-.26,1.54c-.79,0-1.55,0-2.31,0-.35,0-.53.06-.56.45-.05.56-.18,1.12-.25,1.68,0,.26-.08.56.33.64s1-.07,1-.43c.07-.6.43-.58.86-.56.24,0,.49,0,.86,0a12.22,12.22,0,0,1-.65,1.66,1.71,1.71,0,0,1-1.53.78,10.08,10.08,0,0,1-1.65-.06,1.08,1.08,0,0,1-1.07-1.39c.12-.91.29-1.81.45-2.75l-.88,0,.28-1.51h.88Z" class="cls-1" transform="translate(-543.02 -594.81)"/><path d="M650,606.19c-.21.9-.36,1.75-.6,2.59a2,2,0,0,1-1.79,1.56c-1,.11-2,.11-3.12.16l.45-2.56,1-.06a.72.72,0,0,0,.73-.68c.06-.33.11-.66.17-1Z" class="cls-1" transform="translate(-543.02 -594.81)"/><path d="M607.3,644.27h-1.72l1-5.6h1.73Z" class="cls-1" transform="translate(-543.02 -594.81)"/><path d="M606.94,636.28h1.73l-.27,1.53h-1.71Z" class="cls-1" transform="translate(-543.02 -594.81)"/></svg>